PathFileType	4	(X/Y/Z)	Patient4_TMGait_0pt8_01_left_17.trc.trc
DataRate	CameraRate	NumFrames	NumMarkers	Units	OrigDataRate	OrigDataStartFrame	OrigNumFrames
86.419753086420	86.419753086420	4	33	mm	86.419753086420	106	       141
Frame#	Time	Sacral			L.Shoulder			Chest			R.Shoulder			Neck			R.ASIS			L.ASIS			R.Thigh.Superior			R.Thigh.Lateral			R.Thigh.Inferior			R.Patella			L.Thigh.Superior			L.Thigh.Lateral			L.Thigh.Inferior			L.Patella			L.Shank.Superior			L.Shank.Lateral			L.Shank.Inferior			R.Shank.Superior			R.Shank.Lateral			R.Shank.Inferior			R.Heel			R.Midfoot.Superior			R.Midfoot.Lateral			R.Toe			L.Heel			L.Midfoot.Lateral			L.Midfoot.Superior			L.Toe			L.Elbow			L.Wrist			R.Elbow			R.Wrist			
		X1	Y1	Z1	X2	Y2	Z2	X3	Y3	Z3	X4	Y4	Z4	X5	Y5	Z5	X6	Y6	Z6	X7	Y7	Z7	X8	Y8	Z8	X9	Y9	Z9	X10	Y10	Z10	X11	Y11	Z11	X12	Y12	Z12	X13	Y13	Z13	X14	Y14	Z14	X15	Y15	Z15	X16	Y16	Z16	X17	Y17	Z17	X18	Y18	Z18	X19	Y19	Z19	X20	Y20	Z20	X21	Y21	Z21	X22	Y22	Z22	X23	Y23	Z23	X24	Y24	Z24	X25	Y25	Z25	X26	Y26	Z26	X27	Y27	Z27	X28	Y28	Z28	X29	Y29	Z29	X30	Y30	Z30	X31	Y31	Z31	X32	Y32	Z32	X33	Y33	Z33	

106	19.465000000000	912.284101397533	1009.971597333901	492.593069217072	1062.979029884789	1428.247018350532	281.274501334449	1183.075214837548	1368.435126557377	434.698373463465	1115.800868959965	1446.188994855784	614.339756985088	1060.445854387891	1496.481704365263	435.689557411444	1145.514566877635	945.512902436800	591.156195498109	1109.469706356566	962.025211927953	319.211863236099	1165.939999588387	735.406672804941	558.396351484888	1074.105283333774	631.372314866866	617.645562934628	1141.539000833643	574.272274476644	534.805013313128	1130.792127225797	486.047930296894	538.170875156366	1201.373386849695	789.629568537686	349.725092565035	1164.615561193826	662.379728634253	269.416777885777	1273.291294342345	605.712569535286	327.399686066918	1293.313327550000	519.176170220013	317.009000357018	1236.320334774529	446.739094023421	309.480013218509	1101.452326305010	380.509835376685	271.822591058934	1121.063423109106	248.627430695024	318.164947396804	1095.926435850921	400.152025277001	542.564724426575	1015.260732238526	300.830164111251	598.293472694538	1050.752920062954	204.860474934381	532.841236638870	905.525417785604	45.728038199763	492.678396798726	1075.970048836479	96.818032673002	537.969160909283	984.488106383385	38.449332193194	572.196641157305	1193.010855138781	39.923127562172	574.386342751908	953.646800454507	147.142471289324	373.098420625158	1006.973256064729	116.079185043220	283.352297779444	1111.071418169153	141.836883310303	293.101115512155	1201.897967469672	46.579554527991	248.136510290984	1031.084447596007	1066.608564622117	198.285404477821	1079.585704694314	811.592430128484	192.168658589872	1181.630024368197	1109.313448494488	743.644525014073	1422.781219946722	1051.361284416670	682.729789389462	
107	19.476571428571	911.429749746003	1010.648854421550	493.629340776021	1062.444551514550	1428.041603615745	281.554779250153	1183.356019127860	1367.889709717917	434.188660890890	1117.791804407041	1446.542705641772	614.067904566164	1061.033184859911	1496.468141638745	435.705284718280	1144.616578749885	944.971920200412	591.310509394981	1107.735388093845	962.191191249590	319.378628932544	1161.986369335672	734.329437463241	558.178985742347	1068.963308225060	631.367157868008	618.018340438833	1134.985902018437	573.385510954560	534.938134953171	1123.036490850626	485.724582687297	538.365482693245	1200.452777463798	791.862141311369	350.069459141992	1165.131828092835	663.926447253817	269.573895835202	1274.180087669727	608.657040070665	327.747303100278	1296.077440477099	523.706302206423	317.259903547308	1243.273837384328	449.769085846361	309.650732660047	1113.551811104635	374.747424035913	271.371717296799	1141.964159932664	244.222935848489	317.768679780132	1087.970614082761	400.002397668385	542.789111317907	1007.038854264512	300.990112383401	598.614812881271	1042.012393211157	204.906148475811	533.059966485455	896.294452573251	46.065202982117	492.939370700770	1066.772610284693	96.877662565399	538.172286387449	975.214267270868	38.573135904634	572.321554720153	1183.713469338438	39.822834137406	574.461121895429	981.928938802180	130.696035093063	371.824991770402	1037.853997572390	104.140476531493	282.322845891545	1139.711715623651	137.340493592872	292.715575857653	1237.618835669344	49.252610166306	248.049429951424	1021.054088497624	1067.461896592212	199.116534705186	1057.448204388938	810.652751686737	194.679335180441	1193.642982806587	1113.009977650963	743.115713846310	1437.137457887117	1076.460509190123	677.928481143437	
108	19.488142857143	910.641182391794	1011.153861522864	494.454085543621	1062.072432825845	1427.746234710229	281.742170784069	1183.711198161597	1367.177475818284	433.622948018074	1119.766943818040	1446.676298748688	613.700309266840	1061.670903720286	1496.294970289086	435.631983305111	1143.734959815032	944.291334454176	591.365307707301	1106.240067735290	962.166520639882	319.403374268259	1158.125421699219	733.143175618203	558.083360677492	1063.802851928451	631.279089632911	618.342760690521	1128.515294571216	572.430962291428	535.124564065785	1115.385201892087	485.339129333711	538.565547935425	1199.254431020206	793.395909701755	350.330127236915	1165.023993820099	664.862897324250	269.621893624449	1274.206804733833	610.701615283028	328.205878315558	1297.869210884974	527.595841655841	317.739860681374	1249.424091182834	452.485692567676	310.023014909359	1125.799390507315	368.851388405705	270.518193351144	1162.791086053389	240.336857191684	317.343111837606	1080.071343901027	399.799799205302	542.985988150593	998.845235985094	301.108587237518	598.897592428226	1033.275994651585	204.911668502169	533.246515341915	887.063599481385	46.356828612765	493.197078321482	1057.560017129398	96.920646886413	538.346404956606	965.931981646445	38.686730497904	572.439548213765	1174.418840123753	39.737237624921	574.525570080865	1010.904342121761	115.367631963538	369.823260881710	1069.539976915835	93.256532018686	281.021648321723	1168.524838759320	133.682397860676	292.504669716295	1273.078625749856	53.045877293176	249.040718919498	1010.564375787790	1068.703784477846	199.669775532151	1036.307116294415	810.810143207196	197.265463232501	1205.567109350578	1116.838651851292	742.311429849454	1449.519541135988	1101.519279797331	673.140670229172	
109	19.499714285714	909.939046736531	1011.470384523266	495.067071879355	1061.852705817418	1427.355770663937	281.831911228507	1184.130074291589	1366.300464484207	433.000004216226	1121.700637129249	1446.580115745330	613.234687346489	1062.347895730649	1495.951329350358	435.481224372804	1142.889464644080	943.476207377381	591.308926962797	1104.976906280774	961.934097722698	319.288589989970	1154.374691254575	731.839153811145	558.104206691337	1058.636797595222	631.100783120710	618.612721260124	1122.142086046407	571.400032898223	535.356925239583	1107.851678484862	484.872578114974	538.758278649403	1197.806062610070	794.214030850453	350.538490106910	1164.379701142424	665.199261986873	269.555257589834	1273.452082881944	611.848351378041	328.787307206632	1298.783150294856	530.833416107052	318.471279355685	1254.790965034418	454.895017312117	310.598069411523	1138.126223736316	363.025010744591	269.290689140835	1183.294312124420	237.127615675931	316.923409113194	1072.237054715895	399.531899456751	543.147239600409	990.681181255403	301.178402192760	599.137935907142	1024.544232187329	204.866404044377	533.395970787632	877.822341669962	46.590498832118	493.438795971206	1048.324355272060	96.941521861202	538.486147377943	956.638127317434	38.782728744049	572.547558380565	1165.123934947061	39.668516424184	574.583342113199	1040.143767397930	101.486199075773	367.180308079888	1101.615415307490	83.711718432510	279.523490463989	1197.155833302789	131.039022158933	292.497848477240	1307.851631285135	58.034063355545	251.128012789289	999.755611401729	1070.351794851940	200.027370125314	1016.168806569270	811.864640074040	199.885082574533	1217.352299943961	1120.768755454461	741.245262693266	1459.958137726107	1126.254239024275	668.410534189548	
